<?xml version="1.0" standalone="no"?>
<!DOCTYPE svg PUBLIC "-//W3C//DTD SVG 20010904//EN"
 "http://www.w3.org/TR/2001/REC-SVG-20010904/DTD/svg10.dtd">
<svg version="1.0" xmlns="http://www.w3.org/2000/svg"
 width="500.000000pt" height="500.000000pt" viewBox="0 0 500.000000 500.000000"
 preserveAspectRatio="xMidYMid meet">

<g transform="translate(0.000000,500.000000) scale(0.100000,-0.100000)"
fill="#000000" stroke="none">
<path d="M1810 4375 c-57 -18 -124 -75 -151 -126 -49 -97 -30 -209 49 -288 29
-28 63 -51 88 -59 175 -52 334 59 334 233 0 97 -45 173 -128 218 -62 34 -131
42 -192 22z"/>
<path d="M1410 3905 c18 -19 36 -32 39 -29 3 3 -1 9 -8 13 -11 7 -11 10 0 14
10 4 9 6 -3 6 -10 1 -18 6 -18 12 0 5 -4 7 -10 4 -5 -3 -10 -1 -10 4 0 6 -5
11 -12 11 -7 0 3 -16 22 -35z"/>
<path d="M1463 3875 c0 -17 4 -22 16 -17 14 5 14 4 2 -11 -12 -15 -12 -17 4
-11 13 5 16 4 11 -5 -5 -7 8 -27 33 -51 23 -22 37 -34 31 -28 -19 22 -10 31
11 12 19 -17 70 -28 69 -14 -1 3 -15 16 -32 30 -17 14 -40 35 -51 47 -10 12
-25 19 -32 17 -7 -3 -16 0 -21 7 -4 8 -3 10 4 5 23 -14 11 1 -17 21 l-28 22 0
-24z m53 -54 c-3 -5 1 -11 9 -15 8 -3 14 -2 14 2 -3 20 4 17 37 -15 20 -19 33
-37 30 -40 -3 -3 -16 8 -30 23 -14 16 -26 23 -26 16 0 -9 -7 -8 -25 4 -26 17
-33 34 -14 34 5 0 8 -4 5 -9z"/>
<path d="M1636 3735 c-10 -8 -22 -12 -26 -10 -4 2 -7 -2 -7 -10 0 -8 4 -12 9
-9 4 3 8 0 8 -6 0 -7 7 -4 16 5 23 22 29 12 10 -17 -16 -24 -13 -38 8 -38 6 0
5 4 -2 9 -11 6 -10 11 3 25 20 20 34 20 41 1 4 -8 11 -15 18 -15 6 0 -3 13
-20 29 -17 16 -33 33 -35 39 -3 7 -11 6 -23 -3z"/>
<path d="M1700 3650 c0 -5 -7 -7 -15 -4 -8 4 -15 1 -15 -6 0 -6 -6 -8 -12 -4
-7 4 0 -7 16 -24 29 -32 48 -44 29 -19 -14 17 -24 47 -15 46 4 -1 13 -1 20 0
14 1 17 21 2 21 -5 0 -10 -4 -10 -10z"/>
<path d="M1727 3646 c-7 -17 25 -48 44 -44 8 2 13 -3 12 -9 -2 -7 3 -12 10
-10 6 1 11 -4 9 -11 -4 -22 28 -74 43 -68 7 2 16 2 19 -1 8 -8 -13 -33 -28
-33 -6 0 -5 4 3 9 9 6 5 9 -14 9 -19 0 -23 -3 -14 -9 10 -6 11 -9 2 -9 -7 0
-13 -5 -13 -11 0 -8 4 -8 14 0 9 7 17 8 20 2 3 -5 0 -12 -6 -14 -10 -4 -10 -6
0 -6 6 -1 12 -6 12 -12 0 -5 -4 -7 -10 -4 -16 10 -12 -1 6 -15 12 -11 15 -11
12 1 -2 9 8 15 30 17 18 2 30 7 27 12 -3 5 -1 11 5 15 5 3 10 0 10 -8 0 -8 7
-18 16 -21 8 -3 12 -11 8 -17 -4 -8 0 -9 15 -4 16 5 20 3 15 -9 -5 -12 -2 -15
11 -10 11 5 25 -2 41 -19 24 -26 32 -43 15 -32 -5 3 -12 1 -16 -5 -3 -5 -11
-10 -16 -10 -6 0 -7 5 -4 10 3 6 2 10 -3 10 -8 0 -22 -22 -22 -34 0 -1 23 -1
50 0 28 1 49 6 48 10 -2 5 -7 8 -11 6 -5 -1 -6 1 -3 6 6 11 -82 95 -104 100
-8 2 -19 8 -25 14 -7 8 -5 9 8 5 17 -6 17 -6 0 16 -9 13 -28 31 -41 41 -24 18
-24 18 -13 -3 7 -11 17 -21 23 -21 7 0 6 -5 -2 -15 -7 -8 -16 -12 -21 -9 -5 3
-9 0 -9 -5 0 -6 -4 -11 -10 -11 -6 0 -6 9 0 26 7 18 7 31 -1 40 -6 7 -7 19 -3
26 6 9 3 9 -9 -1 -10 -8 -21 -10 -25 -6 -4 4 -2 10 5 12 7 2 9 11 6 19 -5 13
-7 13 -14 2 -7 -10 -9 -9 -9 4 0 20 -33 61 -66 83 -19 12 -23 12 -27 1z m43
-21 c0 -12 -19 -12 -23 0 -4 9 -1 12 9 8 7 -3 14 -7 14 -8z"/>
<path d="M1719 3596 c17 -18 19 -25 9 -29 -11 -4 -11 -6 0 -6 7 -1 10 -6 6
-13 -4 -7 -3 -8 5 -4 6 4 9 12 6 17 -4 5 1 9 10 9 9 0 13 -5 9 -11 -4 -8 0 -8
15 0 25 14 28 23 4 14 -13 -5 -15 -2 -10 12 6 15 5 16 -8 5 -13 -11 -18 -9
-34 9 -10 11 -22 21 -26 21 -5 0 2 -11 14 -24z"/>
<path d="M1780 3530 c0 -5 5 -10 11 -10 5 0 7 5 4 10 -3 6 -8 10 -11 10 -2 0
-4 -4 -4 -10z"/>
<path d="M1767 3499 c13 -21 19 -26 21 -15 2 9 -3 23 -12 31 -24 24 -28 17 -9
-16z"/>
<path d="M1910 3390 c-6 -12 -7 -27 -2 -36 7 -12 10 -10 20 11 9 20 9 25 0 19
-8 -5 -9 -2 -5 9 9 24 0 21 -13 -3z"/>
<path d="M1857 3393 c-8 -7 11 -33 24 -33 5 0 9 5 9 10 0 6 -6 9 -12 8 -7 -2
-12 3 -10 10 2 13 -1 15 -11 5z"/>
<path d="M1880 3346 c0 -2 8 -10 18 -17 15 -13 16 -12 3 4 -13 16 -21 21 -21
13z"/>
<path d="M1937 3327 c-3 -8 3 -14 15 -14 16 -2 17 1 8 13 -15 17 -17 17 -23 1z"/>
<path d="M1931 3291 c-1 -18 38 -81 50 -81 15 0 10 16 -12 36 -12 10 -25 28
-30 39 -4 11 -8 14 -8 6z"/>
<path d="M2088 3293 c0 -5 -2 -15 -2 -23 -1 -11 -11 -14 -33 -12 -36 3 -51
-12 -32 -34 10 -12 9 -13 -4 -8 -10 3 -20 -3 -28 -18 -7 -13 -31 -40 -55 -61
-54 -48 -117 -142 -139 -207 -9 -27 -20 -50 -25 -50 -5 0 -37 6 -72 14 -110
25 -513 58 -496 41 4 -4 42 -13 85 -21 104 -18 301 -78 391 -119 75 -35 92
-56 92 -113 1 -92 103 -265 194 -329 60 -42 62 -46 72 -180 15 -211 -49 -609
-171 -1056 -4 -16 -4 -18 4 -7 32 50 288 821 351 1058 l22 82 52 0 c28 0 78 7
111 15 176 46 327 205 366 386 14 66 6 209 -15 267 l-16 44 37 34 c32 30 34
34 14 34 -13 0 -25 -9 -30 -22 l-8 -22 -11 21 c-9 16 -9 23 1 26 7 3 5 6 -5 6
-10 1 -18 5 -18 10 0 5 -10 13 -22 16 -13 4 -40 25 -60 45 -112 115 -273 172
-423 151 -46 -7 -65 -6 -82 5 -26 16 -45 19 -23 3 13 -9 13 -10 0 -6 -8 2 -14
12 -14 21 2 16 -5 23 -8 9z m327 -70 c73 -22 144 -65 195 -118 44 -45 45 -47
25 -62 -16 -13 -17 -15 -2 -10 11 4 17 1 17 -8 0 -8 9 -20 21 -29 19 -13 20
-18 9 -51 -10 -31 -16 -36 -35 -33 -16 4 -22 1 -18 -9 3 -7 0 -13 -7 -13 -6 0
-9 -4 -5 -9 3 -5 1 -12 -5 -16 -5 -3 -10 -2 -10 4 0 13 -29 41 -43 41 -6 0 -1
-7 11 -16 l22 -15 -20 -29 -20 -29 30 16 c17 8 38 26 46 39 9 13 20 22 24 19
5 -3 18 7 30 22 28 36 50 22 67 -43 42 -163 -14 -354 -139 -470 -91 -84 -209
-134 -316 -134 l-43 0 8 48 c4 26 8 83 8 127 -1 66 -5 89 -27 130 -48 93 -161
179 -333 252 -55 23 -101 46 -103 52 -8 25 69 164 122 216 60 61 86 68 106 30
7 -14 15 -23 18 -20 3 2 -1 12 -8 20 -11 13 -9 20 10 40 13 13 26 22 31 20 4
-3 10 -1 13 4 3 5 16 7 28 3 14 -3 19 -2 14 6 -6 11 6 16 19 10 2 -2 10 5 17
14 23 30 147 31 243 1z m-563 -551 c58 -62 88 -110 122 -194 31 -79 42 -128
29 -128 -16 0 -115 103 -145 150 -45 71 -85 220 -59 220 4 0 29 -22 53 -48z"/>
<path d="M2187 3183 c-2 -5 -4 -20 -3 -35 1 -16 -2 -28 -6 -28 -4 0 -8 5 -8
10 0 12 -37 13 -44 1 -8 -12 21 -34 34 -26 5 3 10 1 10 -5 0 -7 6 -7 22 1 17
9 24 8 34 -5 8 -11 14 -13 19 -6 10 16 24 2 20 -20 -2 -12 0 -18 5 -15 5 3 17
-8 26 -25 13 -20 20 -26 26 -17 6 9 8 9 8 -1 0 -14 24 -42 35 -42 8 0 -14 31
-51 73 -16 18 -49 58 -73 90 -46 60 -47 61 -54 50z m23 -27 c0 -8 10 -21 23
-30 l22 -17 -25 7 c-31 8 -28 5 -34 37 -3 16 -1 25 5 22 5 -4 9 -12 9 -19z"/>
<path d="M2065 3162 c-8 -23 -6 -44 5 -37 6 4 8 11 4 16 -3 5 -2 8 3 7 4 -2
19 5 32 14 l25 17 -32 -2 c-17 -1 -34 -8 -37 -15z"/>
<path d="M2079 3103 c-22 -5 -13 -45 17 -78 13 -14 21 -25 18 -25 -3 0 0 -9 6
-20 13 -24 29 -18 27 10 -1 10 -5 16 -9 14 -4 -3 -8 0 -8 5 0 6 -7 11 -15 11
-8 0 -15 7 -15 16 0 14 2 15 17 3 12 -9 10 -5 -4 14 -12 16 -19 35 -16 43 3 8
4 13 2 13 -2 -1 -11 -3 -20 -6z"/>
<path d="M2175 3013 c8 -8 19 -11 25 -8 18 11 11 23 -14 23 -22 0 -23 -2 -11
-15z"/>
<path d="M2240 3023 c0 -5 5 -15 10 -23 8 -12 10 -11 10 8 0 12 -4 22 -10 22
-5 0 -10 -3 -10 -7z"/>
<path d="M2571 3021 c-10 -6 -9 -10 3 -14 8 -3 18 -2 21 3 8 13 -9 20 -24 11z"/>
<path d="M2530 3000 c0 -11 6 -20 14 -20 9 0 12 7 9 20 -3 11 -9 20 -14 20 -5
0 -9 -9 -9 -20z"/>
<path d="M2638 3010 c17 -20 15 -29 -6 -23 -12 3 -22 -4 -29 -20 -10 -21 -9
-25 3 -23 18 3 54 32 54 45 0 5 -8 15 -17 22 -15 11 -16 11 -5 -1z"/>
<path d="M2490 3000 c-12 -8 -11 -10 8 -10 12 0 22 5 22 10 0 13 -11 13 -30 0z"/>
<path d="M2433 2980 c-13 -5 -23 -14 -23 -19 0 -5 -8 -7 -17 -5 -10 3 -27 -2
-38 -11 -19 -16 -19 -16 3 -5 13 6 28 9 35 6 9 -3 9 -5 0 -5 -7 -1 -13 -6 -13
-12 0 -5 5 -7 12 -3 8 5 9 2 5 -9 -3 -9 -2 -19 2 -22 5 -3 11 2 15 10 3 8 1
17 -5 20 -11 7 -2 25 12 25 6 0 7 -4 4 -10 -3 -5 -1 -10 4 -10 15 0 14 27 -1
34 -7 4 -2 4 10 2 33 -6 59 4 40 15 -16 10 -17 10 -45 -1z"/>
<path d="M2462 2935 c-9 -11 -9 -15 -1 -15 6 0 9 -7 5 -15 -3 -9 0 -15 9 -15
17 0 20 16 5 25 -5 3 -7 12 -3 20 7 19 2 18 -15 0z"/>
<path d="M2180 2930 c0 -5 5 -10 10 -10 6 0 10 5 10 10 0 6 -4 10 -10 10 -5 0
-10 -4 -10 -10z"/>
<path d="M2260 2930 c0 -5 4 -10 9 -10 6 0 13 5 16 10 3 6 -1 10 -9 10 -9 0
-16 -4 -16 -10z"/>
<path d="M2172 2902 c7 -9 13 -18 14 -20 1 -2 4 4 7 12 3 8 -2 16 -14 19 -17
5 -18 3 -7 -11z"/>
<path d="M2227 2905 c3 -8 9 -12 14 -9 12 7 11 11 -5 17 -10 4 -13 1 -9 -8z"/>
<path d="M2580 2916 c0 -2 7 -7 16 -10 8 -3 12 -2 9 4 -6 10 -25 14 -25 6z"/>
<path d="M2201 2881 c-7 -12 -7 -22 -2 -26 5 -3 13 4 16 16 9 28 -1 36 -14 10z"/>
<path d="M2430 2860 c0 -6 7 -10 15 -10 8 0 15 2 15 4 0 2 -7 6 -15 10 -8 3
-15 1 -15 -4z"/>
<path d="M2511 2843 c6 -7 15 -13 20 -13 5 0 6 6 3 13 -3 8 -11 14 -19 14 -11
0 -12 -4 -4 -14z"/>
<path d="M2222 2830 c0 -14 2 -19 5 -12 2 6 2 18 0 25 -3 6 -5 1 -5 -13z"/>
<path d="M2270 2830 c0 -15 38 -55 45 -48 2 2 -8 17 -21 33 -15 19 -24 24 -24
15z"/>
<path d="M2497 2818 c3 -17 2 -19 -5 -9 -7 9 -12 10 -16 2 -4 -6 -2 -11 5 -11
8 0 8 -4 -1 -15 -8 -9 -8 -15 -2 -15 6 0 12 6 15 13 2 6 8 9 12 5 16 -15 -16
-36 -48 -32 -26 4 -29 2 -15 -6 17 -10 15 -40 -3 -40 -4 0 -5 8 -2 18 6 14 4
15 -9 4 -13 -10 -17 -10 -21 0 -3 7 -6 1 -6 -14 -2 -48 19 -41 87 26 37 36 61
66 54 66 -6 0 -12 -4 -12 -10 0 -5 -4 -10 -10 -10 -5 0 -9 10 -7 21 1 12 -3
24 -10 26 -7 3 -10 -4 -6 -19z m-67 -118 c0 -5 -4 -10 -10 -10 -5 0 -10 5 -10
10 0 6 5 10 10 10 6 0 10 -4 10 -10z"/>
<path d="M2244 2785 c10 -7 15 -18 12 -24 -4 -5 -2 -12 3 -15 13 -8 20 31 8
43 -6 6 -18 11 -26 11 -13 -1 -13 -3 3 -15z"/>
<path d="M2397 2787 c-3 -9 1 -18 9 -21 16 -6 18 2 5 22 -7 11 -9 11 -14 -1z"/>
<path d="M2298 2690 c9 -16 21 -26 26 -23 5 4 7 -1 3 -10 -3 -10 -2 -17 2 -17
5 0 11 7 15 15 3 8 1 15 -4 15 -5 0 -11 9 -15 19 -3 10 -14 21 -24 24 -18 4
-18 3 -3 -23z"/>
<path d="M2373 2688 c-11 -17 -33 -81 -29 -85 9 -9 39 42 40 67 1 34 0 35 -11
18z"/>
<path d="M2390 2670 c0 -5 5 -10 11 -10 5 0 7 5 4 10 -3 6 -8 10 -11 10 -2 0
-4 -4 -4 -10z"/>
<path d="M2854 3105 c10 -7 15 -18 11 -24 -3 -6 -4 -11 -1 -11 3 0 10 10 17
21 8 15 8 19 0 15 -6 -4 -11 -2 -11 3 0 6 -8 11 -17 11 -17 -1 -17 -2 1 -15z"/>
<path d="M2804 3098 c-4 -7 -3 -8 4 -4 7 4 12 2 12 -3 0 -6 -4 -11 -10 -11
-16 0 -12 -37 5 -44 9 -3 15 0 15 10 0 9 5 12 13 8 9 -5 9 -4 0 6 -6 7 -9 18
-7 25 6 16 -23 28 -32 13z"/>
<path d="M2746 3081 c-11 -4 -15 -10 -10 -13 5 -2 20 1 34 8 26 14 8 18 -24 5z"/>
<path d="M3314 2387 c-51 -30 -95 -72 -123 -116 -48 -75 -37 -132 13 -69 26
33 26 33 26 8 0 -14 16 -47 35 -74 20 -29 35 -62 35 -78 0 -23 4 -28 23 -28
16 0 35 -14 57 -42 19 -24 38 -44 42 -46 4 -2 8 -19 8 -38 0 -37 5 -39 44 -24
17 6 26 17 26 30 0 12 13 41 30 64 16 24 36 62 45 84 38 94 -2 120 -120 80
-41 -14 -77 -22 -80 -18 -3 4 1 25 9 46 7 22 19 69 26 107 13 63 13 69 -7 95
-22 30 -58 38 -89 19z m55 -92 c4 -22 -19 -124 -29 -130 -8 -5 -70 87 -70 104
0 15 61 52 80 48 8 -1 16 -11 19 -22z m156 -195 c5 -8 -50 -130 -59 -130 -2 0
-18 21 -35 47 l-31 47 52 22 c61 27 65 27 73 14z"/>
<path d="M2815 2069 c-16 -25 -6 -81 17 -107 25 -28 88 -124 88 -135 0 -9
-130 -137 -138 -137 -4 1 -34 44 -67 97 -33 52 -66 98 -73 100 -17 7 -42 -16
-42 -39 0 -10 29 -60 64 -111 35 -51 69 -109 75 -130 9 -25 23 -43 44 -53 18
-9 56 -39 85 -66 29 -27 58 -48 65 -45 14 4 21 59 12 96 -6 24 -8 25 -20 8
-11 -16 -15 -14 -48 23 -24 26 -35 46 -31 57 17 50 40 89 69 119 l33 33 56
-87 c75 -117 112 -160 126 -146 12 12 -74 194 -157 329 -45 75 -139 205 -148
205 -2 0 -7 -5 -10 -11z"/>
<path d="M3146 2018 c-12 -28 -46 -219 -46 -257 0 -6 11 -16 25 -21 15 -6 25
-17 25 -29 0 -25 25 -44 48 -37 25 8 41 46 49 116 5 56 6 58 29 48 32 -15 69
-3 82 27 17 37 15 82 -4 89 -23 9 -24 8 -24 -13 0 -32 -20 -35 -49 -7 -39 37
-57 33 -75 -16 l-16 -43 3 85 c2 74 0 85 -16 88 -12 2 -22 -7 -31 -30z"/>
<path d="M2624 1596 c-25 -19 -25 -116 1 -166 10 -19 21 -48 25 -65 6 -29 8
-30 65 -32 67 -3 88 10 111 64 19 44 18 60 -6 73 -16 9 -21 7 -27 -7 -10 -29
-35 -53 -53 -53 -15 0 -18 12 -22 76 -3 69 -6 79 -31 100 -33 28 -37 29 -63
10z"/>
<path d="M2312 1580 c-106 -38 -161 -92 -148 -145 3 -12 30 -46 59 -76 74 -75
111 -127 112 -157 0 -20 7 -28 30 -34 20 -6 44 -28 72 -68 41 -57 64 -72 78
-50 4 6 -7 34 -24 64 -17 29 -31 56 -31 58 0 3 42 11 93 18 102 14 227 46 227
59 0 5 -7 14 -15 21 -12 10 -46 10 -166 0 -110 -9 -154 -9 -162 -1 -8 8 -2 38
21 109 45 137 42 180 -15 210 -31 17 -70 14 -131 -8z m108 -75 c16 -19 5 -95
-24 -160 l-22 -50 -35 62 c-26 48 -39 63 -56 63 -15 0 -23 -6 -23 -17 0 -16
-2 -16 -15 -2 -29 28 4 64 90 101 50 21 69 22 85 3z"/>
</g>
</svg>
